<svg xmlns="http://www.w3.org/2000/svg" version="1.1" xmlns:xlink="http://www.w3.org/1999/xlink" xmlns:svgjs="http://svgjs.com/svgjs" height="134.54707565307618" width="255.99998474121094"><defs id="SvgjsDefs1053"></defs><g id="SvgjsG1054" rel="mainfill" name="main_text" xmlns:name="main_text" transform="translate(-0.7699999809265137,-106.22292861938476)" fill="#ffffff"><path d="M10.77 240L10.77 220.38L0.77 220.38L0.77 214.22L27.74 214.22L27.74 220.38L17.70 220.38L17.70 240L10.77 240ZM30.82 229.61Q30.82 227.61 31.32 225.86Q31.82 224.11 33.09 222.80Q34.36 221.49 36.47 220.74Q38.59 219.99 41.82 219.99L42.90 219.99Q46.13 219.99 48.25 220.74Q50.36 221.49 51.63 222.80Q52.90 224.11 53.40 225.86Q53.90 227.61 53.90 229.61L53.90 231.15Q53.90 233.15 53.40 234.90Q52.90 236.65 51.63 237.96Q50.36 239.27 48.25 240.02Q46.13 240.77 42.90 240.77L41.82 240.77Q38.59 240.77 36.47 240.02Q34.36 239.27 33.09 237.96Q31.82 236.65 31.32 234.90Q30.82 233.15 30.82 231.15L30.82 229.61M36.97 230.38Q36.97 231.31 37.05 232.19Q37.13 233.07 37.65 233.73Q38.17 234.38 39.24 234.79Q40.32 235.19 42.36 235.19Q44.36 235.19 45.46 234.79Q46.55 234.38 47.07 233.73Q47.59 233.07 47.67 232.19Q47.74 231.31 47.74 230.38Q47.74 229.46 47.67 228.57Q47.59 227.69 47.07 227.03Q46.55 226.38 45.46 225.98Q44.36 225.57 42.36 225.57Q40.32 225.57 39.24 225.98Q38.17 226.38 37.65 227.03Q37.13 227.69 37.05 228.57Q36.97 229.46 36.97 230.38ZM62.29 220.76L66.87 232.54L71.48 220.76L76.14 220.76L80.72 232.54L85.33 220.76L90.83 220.76L90.83 222.30L83.45 240L78.02 240L73.75 229.23L69.60 240L64.17 240L56.79 222.30L56.79 220.76L62.29 220.76ZM95.45 220.76L97.53 221.99Q99.38 220.99 101.45 220.49Q103.53 219.99 106.07 219.99Q109.30 219.99 111.42 220.74Q113.53 221.49 114.80 222.80Q116.07 224.11 116.57 225.86Q117.07 227.61 117.07 229.61L117.07 240L110.92 240L110.92 230.38Q110.92 229.46 110.84 228.57Q110.76 227.69 110.26 227.03Q109.76 226.38 108.72 225.98Q107.69 225.57 105.72 225.57Q104.11 225.57 102.72 225.78Q101.34 226.00 100.07 226.42L100.07 240L93.91 240L93.91 220.76L95.45 220.76ZM129.00 214.22L129.00 224.23L142.47 224.23L142.47 214.22L149.39 214.22L149.39 240L142.47 240L142.47 230.38L129.00 230.38L129.00 240L122.07 240L122.07 214.22L129.00 214.22ZM154.39 229.61Q154.39 227.61 154.89 225.86Q155.39 224.11 156.66 222.80Q157.93 221.49 160.05 220.74Q162.16 219.99 165.40 219.99L166.47 219.99Q169.70 219.99 171.82 220.74Q173.94 221.49 175.21 222.80Q176.48 224.11 176.98 225.86Q177.48 227.61 177.48 229.61L177.48 231.15Q177.48 233.15 176.98 234.90Q176.48 236.65 175.21 237.96Q173.94 239.27 171.82 240.02Q169.70 240.77 166.47 240.77L165.40 240.77Q162.16 240.77 160.05 240.02Q157.93 239.27 156.66 237.96Q155.39 236.65 154.89 234.90Q154.39 233.15 154.39 231.15L154.39 229.61M160.55 230.38Q160.55 231.31 160.62 232.19Q160.70 233.07 161.22 233.73Q161.74 234.38 162.82 234.79Q163.89 235.19 165.93 235.19Q167.93 235.19 169.03 234.79Q170.13 234.38 170.65 233.73Q171.17 233.07 171.24 232.19Q171.32 231.31 171.32 230.38Q171.32 229.46 171.24 228.57Q171.17 227.69 170.65 227.03Q170.13 226.38 169.03 225.98Q167.93 225.57 165.93 225.57Q163.89 225.57 162.82 225.98Q161.74 226.38 161.22 227.03Q160.70 227.69 160.62 228.57Q160.55 229.46 160.55 230.38ZM192.71 240.77Q189.59 240.77 187.54 240.02Q185.48 239.27 184.27 237.96Q183.05 236.65 182.57 234.90Q182.09 233.15 182.09 231.15L182.09 220.76L188.25 220.76L188.25 230.38Q188.25 231.31 188.32 232.19Q188.40 233.07 188.86 233.73Q189.33 234.38 190.34 234.79Q191.36 235.19 193.25 235.19Q195.13 235.19 196.15 234.79Q197.17 234.38 197.64 233.73Q198.10 233.07 198.17 232.19Q198.25 231.31 198.25 230.38L198.25 220.76L204.41 220.76L204.41 231.15Q204.41 233.15 203.91 234.90Q203.41 236.65 202.19 237.96Q200.98 239.27 198.94 240.02Q196.90 240.77 193.79 240.77L192.71 240.77ZM219.30 235.58Q220.76 235.58 221.60 235.46Q222.45 235.34 222.87 235.17Q223.30 235.00 223.41 234.79Q223.53 234.58 223.53 234.34Q223.53 233.46 222.47 233.27Q221.41 233.07 219.10 233.00Q218.33 233.00 217.28 232.92Q216.22 232.84 215.08 232.65Q213.95 232.46 212.83 232.07Q211.72 231.69 210.85 231.00Q209.99 230.30 209.45 229.27Q208.91 228.23 208.91 226.73L208.91 226.34Q208.91 225.07 209.39 223.94Q209.87 222.80 211.06 221.92Q212.26 221.03 214.24 220.51Q216.22 219.99 219.22 219.99L220.30 219.99Q222.49 219.99 224.57 220.24Q226.64 220.49 228.61 220.96L228.61 226.30Q226.30 225.77 224.03 225.48Q221.76 225.19 219.33 225.19Q217.83 225.19 216.99 225.30Q216.14 225.42 215.72 225.61Q215.29 225.80 215.18 226.02Q215.06 226.23 215.06 226.46Q215.06 227.27 216.10 227.48Q217.14 227.69 219.49 227.77Q220.22 227.80 221.28 227.84Q222.34 227.88 223.47 228.09Q224.60 228.30 225.72 228.69Q226.84 229.07 227.72 229.77Q228.61 230.46 229.14 231.50Q229.68 232.54 229.68 234.04L229.68 234.42Q229.68 235.69 229.20 236.83Q228.72 237.96 227.53 238.85Q226.34 239.73 224.35 240.25Q222.37 240.77 219.37 240.77L218.30 240.77Q215.79 240.77 213.45 240.52Q211.10 240.27 208.83 239.81L208.83 234.46Q211.37 235.00 214.08 235.29Q216.79 235.58 219.30 235.58ZM245.11 240.77Q241.88 240.77 239.76 240.02Q237.65 239.27 236.38 237.96Q235.11 236.65 234.61 234.90Q234.11 233.15 234.11 231.15L234.11 229.61Q234.11 227.61 234.61 225.86Q235.11 224.11 236.38 222.80Q237.65 221.49 239.76 220.74Q241.88 219.99 245.11 219.99L246.19 219.99Q249.46 219.99 251.54 220.47Q253.61 220.96 254.77 221.80Q255.92 222.65 256.35 223.76Q256.77 224.88 256.77 226.15L256.77 226.53Q256.77 227.69 256.48 228.73Q256.19 229.77 255.11 230.57Q254.04 231.38 251.94 231.84Q249.84 232.31 246.23 232.31Q244.50 232.31 243.03 232.15Q241.57 232.00 240.26 231.61Q240.30 232.42 240.53 233.09Q240.76 233.77 241.40 234.23Q242.03 234.69 243.19 234.94Q244.34 235.19 246.27 235.19Q247.19 235.19 248.32 235.11Q249.46 235.04 250.67 234.90Q251.88 234.77 253.06 234.56Q254.23 234.34 255.23 234.04L255.23 239.81Q254.23 240.04 253.06 240.21Q251.88 240.38 250.63 240.52Q249.38 240.65 248.15 240.71Q246.92 240.77 245.84 240.77L245.11 240.77M246.23 224.80Q244.69 224.80 243.65 224.98Q242.61 225.15 241.96 225.50Q241.30 225.84 240.96 226.34Q240.61 226.84 240.46 227.50Q241.57 227.80 242.86 227.94Q244.15 228.07 245.84 228.07Q247.53 228.07 248.50 227.94Q249.46 227.80 249.92 227.59Q250.38 227.38 250.50 227.13Q250.61 226.88 250.61 226.61Q250.61 226.34 250.52 226.02Q250.42 225.69 249.98 225.42Q249.54 225.15 248.65 224.98Q247.77 224.80 246.23 224.80Z" fill="#ffffff" style="fill: rgb(255, 255, 255);"></path></g><g id="SvgjsG1055" rel="mainfill" name="symbol" xmlns:name="symbol_mainfill" transform="translate(72.90330324172973,-6.928794860839845) scale(1.1)" fill="#ffffff"><g fill="#ffffff"><g fill="#ffffff"><polygon points="65.5791473,6.2989044 48.4950409,23.9749031 71.2213287,47.6233711 73.4308243,49.9313507 73.4308243,53.1226273     73.4308243,74.4479599 94.8202972,74.4479599 94.8202972,36.7288971   "></polygon></g><g fill="#ffffff"><path d="M5.3555002,53.1226273v37.7190704h58.6550293V53.1226273L34.7693748,22.6926365L5.3555002,53.1226273z     M31.5786037,83.177887H19.6776047V71.2718353h11.9009991V83.177887z M31.5786037,65.5705719H19.6776047V53.6650276h11.9009991    V65.5705719z M37.7778282,53.6650276h11.9055443v11.9055443H37.7778282V53.6650276z M37.7778282,71.2718353h11.9055443V83.177887    H37.7778282V71.2718353z" fill="#ffffff" style="fill: rgb(255, 255, 255);"></path></g></g></g></svg>